<mxfile host="app.diagrams.net" modified="2022-12-09T23:23:31.528Z" agent="5.0 (Macintosh; Intel Mac OS X 10_15_7) AppleWebKit/537.36 (KHTML, like Gecko) Chrome/108.0.0.0 Safari/537.36" etag="jjlVZWcZp8kGxXVAyl02" version="20.5.3" type="github">
  <diagram id="s4nw9thNw9h5mvvjcwDq" name="Page-1">
    <mxGraphModel dx="1189" dy="828" grid="1" gridSize="10" guides="1" tooltips="1" connect="1" arrows="1" fold="1" page="1" pageScale="1" pageWidth="850" pageHeight="1100" math="0" shadow="0">
      <root>
        <mxCell id="0" />
        <mxCell id="1" parent="0" />
        <mxCell id="DE9zy7Kcf4jHZsRejtrs-1" value="&amp;lt;&amp;lt;SuperClass&amp;gt;&amp;gt;&lt;br&gt;DisplayBehavior" style="rounded=0;whiteSpace=wrap;html=1;" vertex="1" parent="1">
          <mxGeometry x="610" y="180" width="280" height="40" as="geometry" />
        </mxCell>
        <mxCell id="DE9zy7Kcf4jHZsRejtrs-2" value="+DisplayContent(String,String,ArrayList&amp;lt;Player&amp;gt;)" style="rounded=0;whiteSpace=wrap;html=1;" vertex="1" parent="1">
          <mxGeometry x="610" y="220" width="280" height="40" as="geometry" />
        </mxCell>
        <mxCell id="DE9zy7Kcf4jHZsRejtrs-3" value="StartDisplayBehavior" style="rounded=0;whiteSpace=wrap;html=1;" vertex="1" parent="1">
          <mxGeometry x="470" y="100" width="120" height="60" as="geometry" />
        </mxCell>
        <mxCell id="DE9zy7Kcf4jHZsRejtrs-4" value="EndDisplayBehavior" style="rounded=0;whiteSpace=wrap;html=1;" vertex="1" parent="1">
          <mxGeometry x="770" y="100" width="120" height="60" as="geometry" />
        </mxCell>
        <mxCell id="DE9zy7Kcf4jHZsRejtrs-5" value="FirstVirusDisplayBehavior" style="rounded=0;whiteSpace=wrap;html=1;" vertex="1" parent="1">
          <mxGeometry x="610" y="100" width="140" height="60" as="geometry" />
        </mxCell>
        <mxCell id="DE9zy7Kcf4jHZsRejtrs-6" value="SecondVirusDisplayBehavior" style="rounded=0;whiteSpace=wrap;html=1;" vertex="1" parent="1">
          <mxGeometry x="910" y="100" width="160" height="60" as="geometry" />
        </mxCell>
        <mxCell id="DE9zy7Kcf4jHZsRejtrs-7" value="IndividualDisplayBehavior" style="rounded=0;whiteSpace=wrap;html=1;" vertex="1" parent="1">
          <mxGeometry x="930" y="180" width="140" height="60" as="geometry" />
        </mxCell>
        <mxCell id="DE9zy7Kcf4jHZsRejtrs-10" value="CardFactory" style="rounded=0;whiteSpace=wrap;html=1;" vertex="1" parent="1">
          <mxGeometry x="70" y="110" width="190" height="60" as="geometry" />
        </mxCell>
        <mxCell id="DE9zy7Kcf4jHZsRejtrs-11" value="+CardMaker(String,String,String)" style="rounded=0;whiteSpace=wrap;html=1;" vertex="1" parent="1">
          <mxGeometry x="70" y="170" width="190" height="60" as="geometry" />
        </mxCell>
        <mxCell id="DE9zy7Kcf4jHZsRejtrs-12" value="&amp;lt;&amp;lt;SuperClass&amp;gt;&amp;gt;&lt;br&gt;Card" style="rounded=0;whiteSpace=wrap;html=1;" vertex="1" parent="1">
          <mxGeometry x="330" y="280" width="210" height="40" as="geometry" />
        </mxCell>
        <mxCell id="DE9zy7Kcf4jHZsRejtrs-13" value="+setDisplayBehavior(DisplayBehavior)&lt;br&gt;+DisplayContent()&lt;br&gt;" style="rounded=0;whiteSpace=wrap;html=1;" vertex="1" parent="1">
          <mxGeometry x="330" y="320" width="210" height="60" as="geometry" />
        </mxCell>
        <mxCell id="DE9zy7Kcf4jHZsRejtrs-14" value="StartCard" style="rounded=0;whiteSpace=wrap;html=1;" vertex="1" parent="1">
          <mxGeometry x="20" y="420" width="120" height="60" as="geometry" />
        </mxCell>
        <mxCell id="DE9zy7Kcf4jHZsRejtrs-15" value="EndCard" style="rounded=0;whiteSpace=wrap;html=1;" vertex="1" parent="1">
          <mxGeometry x="170" y="420" width="120" height="60" as="geometry" />
        </mxCell>
        <mxCell id="DE9zy7Kcf4jHZsRejtrs-16" value="IndividualCard" style="rounded=0;whiteSpace=wrap;html=1;" vertex="1" parent="1">
          <mxGeometry x="330" y="420" width="120" height="60" as="geometry" />
        </mxCell>
        <mxCell id="DE9zy7Kcf4jHZsRejtrs-17" value="GroupCard" style="rounded=0;whiteSpace=wrap;html=1;" vertex="1" parent="1">
          <mxGeometry x="480" y="420" width="120" height="60" as="geometry" />
        </mxCell>
        <mxCell id="DE9zy7Kcf4jHZsRejtrs-18" value="FirstVirusCard" style="rounded=0;whiteSpace=wrap;html=1;" vertex="1" parent="1">
          <mxGeometry x="630" y="420" width="120" height="60" as="geometry" />
        </mxCell>
        <mxCell id="DE9zy7Kcf4jHZsRejtrs-19" value="SecondVirusCard" style="rounded=0;whiteSpace=wrap;html=1;" vertex="1" parent="1">
          <mxGeometry x="770" y="420" width="120" height="60" as="geometry" />
        </mxCell>
        <mxCell id="DE9zy7Kcf4jHZsRejtrs-20" value="+static synchronized StartCard getInstance()" style="rounded=0;whiteSpace=wrap;html=1;" vertex="1" parent="1">
          <mxGeometry x="20" y="480" width="120" height="60" as="geometry" />
        </mxCell>
        <mxCell id="DE9zy7Kcf4jHZsRejtrs-21" value="+static synchronized EndCard getInstance()" style="rounded=0;whiteSpace=wrap;html=1;" vertex="1" parent="1">
          <mxGeometry x="170" y="480" width="120" height="60" as="geometry" />
        </mxCell>
        <mxCell id="DE9zy7Kcf4jHZsRejtrs-22" value="-String prompt&lt;br&gt;-String name" style="rounded=0;whiteSpace=wrap;html=1;" vertex="1" parent="1">
          <mxGeometry x="330" y="480" width="120" height="60" as="geometry" />
        </mxCell>
        <mxCell id="DE9zy7Kcf4jHZsRejtrs-23" value="-String prompt" style="rounded=0;whiteSpace=wrap;html=1;" vertex="1" parent="1">
          <mxGeometry x="480" y="480" width="120" height="60" as="geometry" />
        </mxCell>
        <mxCell id="DE9zy7Kcf4jHZsRejtrs-24" value="-String prompt&lt;br&gt;-String name" style="rounded=0;whiteSpace=wrap;html=1;" vertex="1" parent="1">
          <mxGeometry x="630" y="480" width="120" height="60" as="geometry" />
        </mxCell>
        <mxCell id="DE9zy7Kcf4jHZsRejtrs-25" value="-String name" style="rounded=0;whiteSpace=wrap;html=1;" vertex="1" parent="1">
          <mxGeometry x="770" y="480" width="120" height="60" as="geometry" />
        </mxCell>
        <mxCell id="DE9zy7Kcf4jHZsRejtrs-26" value="Player" style="rounded=0;whiteSpace=wrap;html=1;" vertex="1" parent="1">
          <mxGeometry x="920" y="280" width="170" height="40" as="geometry" />
        </mxCell>
        <mxCell id="DE9zy7Kcf4jHZsRejtrs-27" value="- int score&lt;br&gt;- string name&lt;br&gt;- ArrayList&amp;lt;Observer&amp;gt; observers" style="rounded=0;whiteSpace=wrap;html=1;" vertex="1" parent="1">
          <mxGeometry x="920" y="320" width="170" height="60" as="geometry" />
        </mxCell>
        <mxCell id="DE9zy7Kcf4jHZsRejtrs-28" value="+[getters and setters for all vars]&lt;br&gt;+RegisterObserver(Observer)&lt;br&gt;+removeObserver(Observer)&lt;br&gt;+notifyObserver()" style="rounded=0;whiteSpace=wrap;html=1;" vertex="1" parent="1">
          <mxGeometry x="920" y="380" width="170" height="120" as="geometry" />
        </mxCell>
        <mxCell id="DE9zy7Kcf4jHZsRejtrs-29" value="" style="rounded=0;whiteSpace=wrap;html=1;" vertex="1" parent="1">
          <mxGeometry x="480" y="610" width="120" height="60" as="geometry" />
        </mxCell>
      </root>
    </mxGraphModel>
  </diagram>
</mxfile>
